<svg width="22" height="28" viewBox="0 0 22 28" fill="none" xmlns="http://www.w3.org/2000/svg">
<path d="M11 0C8.08369 0.00344047 5.28779 1.16347 3.22564 3.22563C1.16348 5.28778 0.00345217 8.08367 1.17029e-05 11C-0.00348119 13.3832 0.774992 15.7018 2.21601 17.6C2.21601 17.6 2.51601 17.995 2.56501 18.052L11 28L19.439 18.047C19.483 17.994 19.784 17.6 19.784 17.6L19.785 17.597C21.2253 15.6996 22.0034 13.3821 22 11C21.9966 8.08367 20.8365 5.28778 18.7744 3.22563C16.7122 1.16347 13.9163 0.00344047 11 0V0ZM12 16H10V14H12V16ZM12 12H10V10H12V12ZM16 16H14V8H8.00001V16H6.00001V8C6.00054 7.46973 6.21143 6.96133 6.58638 6.58637C6.96134 6.21141 7.46974 6.00053 8.00001 6H14C14.5303 6.00053 15.0387 6.21141 15.4136 6.58637C15.7886 6.96133 15.9995 7.46973 16 8V16Z" fill="white"/>
</svg>
